<?xml version="1.0" encoding="UTF-8" standalone="no"?>
<!DOCTYPE svg PUBLIC "-//W3C//DTD SVG 1.1//EN"
 "http://www.w3.org/Graphics/SVG/1.1/DTD/svg11.dtd">
<!-- Generated by graphviz version 2.38.0 (20140413.2041)
 -->
<!-- Title: G Pages: 1 -->
<svg width="350pt" height="476pt"
 viewBox="0.00 0.00 350.00 476.00" xmlns="http://www.w3.org/2000/svg" xmlns:xlink="http://www.w3.org/1999/xlink">
<g id="graph0" class="graph" transform="scale(1 1) rotate(0) translate(4 472)">
<title>G</title>
<polygon fill="white" stroke="none" points="-4,4 -4,-472 346,-472 346,4 -4,4"/>
<!-- zero -->
<g id="node1" class="node"><title>zero</title>
<ellipse fill="none" stroke="black" cx="171" cy="-450" rx="27" ry="18"/>
<text text-anchor="middle" x="171" y="-446.3" font-family="Times,serif" font-size="14.00">0</text>
</g>
<!-- one_1 -->
<g id="node2" class="node"><title>one_1</title>
<ellipse fill="none" stroke="black" cx="27" cy="-378" rx="27" ry="18"/>
<text text-anchor="middle" x="27" y="-374.3" font-family="Times,serif" font-size="14.00">1</text>
</g>
<!-- zero&#45;&gt;one_1 -->
<g id="edge1" class="edge"><title>zero&#45;&gt;one_1</title>
<path fill="none" stroke="black" d="M149.752,-438.671C125.398,-426.832 85.2814,-407.331 57.5723,-393.862"/>
<polygon fill="black" stroke="black" points="58.8588,-390.595 48.3349,-389.371 55.7984,-396.891 58.8588,-390.595"/>
</g>
<!-- one_2 -->
<g id="node3" class="node"><title>one_2</title>
<ellipse fill="none" stroke="black" cx="99" cy="-378" rx="27" ry="18"/>
<text text-anchor="middle" x="99" y="-374.3" font-family="Times,serif" font-size="14.00">2</text>
</g>
<!-- zero&#45;&gt;one_2 -->
<g id="edge2" class="edge"><title>zero&#45;&gt;one_2</title>
<path fill="none" stroke="black" d="M156.43,-434.834C146.25,-424.938 132.476,-411.546 120.969,-400.359"/>
<polygon fill="black" stroke="black" points="123.405,-397.846 113.796,-393.385 118.526,-402.865 123.405,-397.846"/>
</g>
<!-- one_3 -->
<g id="node4" class="node"><title>one_3</title>
<ellipse fill="none" stroke="black" cx="171" cy="-378" rx="27" ry="18"/>
<text text-anchor="middle" x="171" y="-374.3" font-family="Times,serif" font-size="14.00">3</text>
</g>
<!-- zero&#45;&gt;one_3 -->
<g id="edge3" class="edge"><title>zero&#45;&gt;one_3</title>
<path fill="none" stroke="black" d="M171,-431.697C171,-423.983 171,-414.712 171,-406.112"/>
<polygon fill="black" stroke="black" points="174.5,-406.104 171,-396.104 167.5,-406.104 174.5,-406.104"/>
</g>
<!-- one_4 -->
<g id="node5" class="node"><title>one_4</title>
<ellipse fill="none" stroke="black" cx="243" cy="-378" rx="27" ry="18"/>
<text text-anchor="middle" x="243" y="-374.3" font-family="Times,serif" font-size="14.00">4</text>
</g>
<!-- zero&#45;&gt;one_4 -->
<g id="edge4" class="edge"><title>zero&#45;&gt;one_4</title>
<path fill="none" stroke="black" d="M185.57,-434.834C195.75,-424.938 209.524,-411.546 221.031,-400.359"/>
<polygon fill="black" stroke="black" points="223.474,-402.865 228.204,-393.385 218.595,-397.846 223.474,-402.865"/>
</g>
<!-- one_5 -->
<g id="node6" class="node"><title>one_5</title>
<ellipse fill="none" stroke="black" cx="315" cy="-378" rx="27" ry="18"/>
<text text-anchor="middle" x="315" y="-374.3" font-family="Times,serif" font-size="14.00">5</text>
</g>
<!-- zero&#45;&gt;one_5 -->
<g id="edge5" class="edge"><title>zero&#45;&gt;one_5</title>
<path fill="none" stroke="black" d="M192.248,-438.671C216.602,-426.832 256.719,-407.331 284.428,-393.862"/>
<polygon fill="black" stroke="black" points="286.202,-396.891 293.665,-389.371 283.141,-390.595 286.202,-396.891"/>
</g>
<!-- two -->
<g id="node7" class="node"><title>two</title>
<ellipse fill="none" stroke="black" cx="171" cy="-306" rx="27" ry="18"/>
<text text-anchor="middle" x="171" y="-302.3" font-family="Times,serif" font-size="14.00">6</text>
</g>
<!-- one_1&#45;&gt;two -->
<g id="edge6" class="edge"><title>one_1&#45;&gt;two</title>
<path fill="none" stroke="black" d="M48.2477,-366.671C72.6018,-354.832 112.719,-335.331 140.428,-321.862"/>
<polygon fill="black" stroke="black" points="142.202,-324.891 149.665,-317.371 139.141,-318.595 142.202,-324.891"/>
</g>
<!-- one_2&#45;&gt;two -->
<g id="edge7" class="edge"><title>one_2&#45;&gt;two</title>
<path fill="none" stroke="black" d="M113.57,-362.834C123.75,-352.938 137.524,-339.546 149.031,-328.359"/>
<polygon fill="black" stroke="black" points="151.474,-330.865 156.204,-321.385 146.595,-325.846 151.474,-330.865"/>
</g>
<!-- one_3&#45;&gt;two -->
<g id="edge8" class="edge"><title>one_3&#45;&gt;two</title>
<path fill="none" stroke="black" d="M171,-359.697C171,-351.983 171,-342.712 171,-334.112"/>
<polygon fill="black" stroke="black" points="174.5,-334.104 171,-324.104 167.5,-334.104 174.5,-334.104"/>
</g>
<!-- one_4&#45;&gt;two -->
<g id="edge9" class="edge"><title>one_4&#45;&gt;two</title>
<path fill="none" stroke="black" d="M228.43,-362.834C218.25,-352.938 204.476,-339.546 192.969,-328.359"/>
<polygon fill="black" stroke="black" points="195.405,-325.846 185.796,-321.385 190.526,-330.865 195.405,-325.846"/>
</g>
<!-- one_5&#45;&gt;two -->
<g id="edge10" class="edge"><title>one_5&#45;&gt;two</title>
<path fill="none" stroke="black" d="M293.752,-366.671C269.398,-354.832 229.281,-335.331 201.572,-321.862"/>
<polygon fill="black" stroke="black" points="202.859,-318.595 192.335,-317.371 199.798,-324.891 202.859,-318.595"/>
</g>
<!-- three_1 -->
<g id="node8" class="node"><title>three_1</title>
<ellipse fill="none" stroke="black" cx="27" cy="-234" rx="27" ry="18"/>
<text text-anchor="middle" x="27" y="-230.3" font-family="Times,serif" font-size="14.00">7</text>
</g>
<!-- two&#45;&gt;three_1 -->
<g id="edge11" class="edge"><title>two&#45;&gt;three_1</title>
<path fill="none" stroke="black" d="M149.752,-294.671C125.398,-282.832 85.2814,-263.331 57.5723,-249.862"/>
<polygon fill="black" stroke="black" points="58.8588,-246.595 48.3349,-245.371 55.7984,-252.891 58.8588,-246.595"/>
</g>
<!-- three_2 -->
<g id="node9" class="node"><title>three_2</title>
<ellipse fill="none" stroke="black" cx="99" cy="-234" rx="27" ry="18"/>
<text text-anchor="middle" x="99" y="-230.3" font-family="Times,serif" font-size="14.00">8</text>
</g>
<!-- two&#45;&gt;three_2 -->
<g id="edge12" class="edge"><title>two&#45;&gt;three_2</title>
<path fill="none" stroke="black" d="M156.43,-290.834C146.25,-280.938 132.476,-267.546 120.969,-256.359"/>
<polygon fill="black" stroke="black" points="123.405,-253.846 113.796,-249.385 118.526,-258.865 123.405,-253.846"/>
</g>
<!-- three_3 -->
<g id="node10" class="node"><title>three_3</title>
<ellipse fill="none" stroke="black" cx="171" cy="-234" rx="27" ry="18"/>
<text text-anchor="middle" x="171" y="-230.3" font-family="Times,serif" font-size="14.00">9</text>
</g>
<!-- two&#45;&gt;three_3 -->
<g id="edge13" class="edge"><title>two&#45;&gt;three_3</title>
<path fill="none" stroke="black" d="M171,-287.697C171,-279.983 171,-270.712 171,-262.112"/>
<polygon fill="black" stroke="black" points="174.5,-262.104 171,-252.104 167.5,-262.104 174.5,-262.104"/>
</g>
<!-- three_4 -->
<g id="node11" class="node"><title>three_4</title>
<ellipse fill="none" stroke="black" cx="243" cy="-234" rx="27" ry="18"/>
<text text-anchor="middle" x="243" y="-230.3" font-family="Times,serif" font-size="14.00">10</text>
</g>
<!-- two&#45;&gt;three_4 -->
<g id="edge14" class="edge"><title>two&#45;&gt;three_4</title>
<path fill="none" stroke="black" d="M185.57,-290.834C195.75,-280.938 209.524,-267.546 221.031,-256.359"/>
<polygon fill="black" stroke="black" points="223.474,-258.865 228.204,-249.385 218.595,-253.846 223.474,-258.865"/>
</g>
<!-- three_5 -->
<g id="node12" class="node"><title>three_5</title>
<ellipse fill="none" stroke="black" cx="315" cy="-234" rx="27" ry="18"/>
<text text-anchor="middle" x="315" y="-230.3" font-family="Times,serif" font-size="14.00">11</text>
</g>
<!-- two&#45;&gt;three_5 -->
<g id="edge15" class="edge"><title>two&#45;&gt;three_5</title>
<path fill="none" stroke="black" d="M192.248,-294.671C216.602,-282.832 256.719,-263.331 284.428,-249.862"/>
<polygon fill="black" stroke="black" points="286.202,-252.891 293.665,-245.371 283.141,-246.595 286.202,-252.891"/>
</g>
<!-- four -->
<g id="node13" class="node"><title>four</title>
<ellipse fill="none" stroke="black" cx="171" cy="-162" rx="27" ry="18"/>
<text text-anchor="middle" x="171" y="-158.3" font-family="Times,serif" font-size="14.00">12</text>
</g>
<!-- three_1&#45;&gt;four -->
<g id="edge16" class="edge"><title>three_1&#45;&gt;four</title>
<path fill="none" stroke="black" d="M48.2477,-222.671C72.6018,-210.832 112.719,-191.331 140.428,-177.862"/>
<polygon fill="black" stroke="black" points="142.202,-180.891 149.665,-173.371 139.141,-174.595 142.202,-180.891"/>
</g>
<!-- three_2&#45;&gt;four -->
<g id="edge17" class="edge"><title>three_2&#45;&gt;four</title>
<path fill="none" stroke="black" d="M113.57,-218.834C123.75,-208.938 137.524,-195.546 149.031,-184.359"/>
<polygon fill="black" stroke="black" points="151.474,-186.865 156.204,-177.385 146.595,-181.846 151.474,-186.865"/>
</g>
<!-- three_3&#45;&gt;four -->
<g id="edge18" class="edge"><title>three_3&#45;&gt;four</title>
<path fill="none" stroke="black" d="M171,-215.697C171,-207.983 171,-198.712 171,-190.112"/>
<polygon fill="black" stroke="black" points="174.5,-190.104 171,-180.104 167.5,-190.104 174.5,-190.104"/>
</g>
<!-- three_4&#45;&gt;four -->
<g id="edge19" class="edge"><title>three_4&#45;&gt;four</title>
<path fill="none" stroke="black" d="M228.43,-218.834C218.25,-208.938 204.476,-195.546 192.969,-184.359"/>
<polygon fill="black" stroke="black" points="195.405,-181.846 185.796,-177.385 190.526,-186.865 195.405,-181.846"/>
</g>
<!-- three_5&#45;&gt;four -->
<g id="edge20" class="edge"><title>three_5&#45;&gt;four</title>
<path fill="none" stroke="black" d="M293.752,-222.671C269.398,-210.832 229.281,-191.331 201.572,-177.862"/>
<polygon fill="black" stroke="black" points="202.859,-174.595 192.335,-173.371 199.798,-180.891 202.859,-174.595"/>
</g>
<!-- five_1 -->
<g id="node14" class="node"><title>five_1</title>
<ellipse fill="none" stroke="black" cx="27" cy="-90" rx="27" ry="18"/>
<text text-anchor="middle" x="27" y="-86.3" font-family="Times,serif" font-size="14.00">13</text>
</g>
<!-- four&#45;&gt;five_1 -->
<g id="edge21" class="edge"><title>four&#45;&gt;five_1</title>
<path fill="none" stroke="black" d="M149.752,-150.671C125.398,-138.832 85.2814,-119.331 57.5723,-105.862"/>
<polygon fill="black" stroke="black" points="58.8588,-102.595 48.3349,-101.371 55.7984,-108.891 58.8588,-102.595"/>
</g>
<!-- five_2 -->
<g id="node15" class="node"><title>five_2</title>
<ellipse fill="none" stroke="black" cx="99" cy="-90" rx="27" ry="18"/>
<text text-anchor="middle" x="99" y="-86.3" font-family="Times,serif" font-size="14.00">14</text>
</g>
<!-- four&#45;&gt;five_2 -->
<g id="edge22" class="edge"><title>four&#45;&gt;five_2</title>
<path fill="none" stroke="black" d="M156.43,-146.834C146.25,-136.938 132.476,-123.546 120.969,-112.359"/>
<polygon fill="black" stroke="black" points="123.405,-109.846 113.796,-105.385 118.526,-114.865 123.405,-109.846"/>
</g>
<!-- five_3 -->
<g id="node16" class="node"><title>five_3</title>
<ellipse fill="none" stroke="black" cx="171" cy="-90" rx="27" ry="18"/>
<text text-anchor="middle" x="171" y="-86.3" font-family="Times,serif" font-size="14.00">15</text>
</g>
<!-- four&#45;&gt;five_3 -->
<g id="edge23" class="edge"><title>four&#45;&gt;five_3</title>
<path fill="none" stroke="black" d="M171,-143.697C171,-135.983 171,-126.712 171,-118.112"/>
<polygon fill="black" stroke="black" points="174.5,-118.104 171,-108.104 167.5,-118.104 174.5,-118.104"/>
</g>
<!-- five_4 -->
<g id="node17" class="node"><title>five_4</title>
<ellipse fill="none" stroke="black" cx="243" cy="-90" rx="27" ry="18"/>
<text text-anchor="middle" x="243" y="-86.3" font-family="Times,serif" font-size="14.00">16</text>
</g>
<!-- four&#45;&gt;five_4 -->
<g id="edge24" class="edge"><title>four&#45;&gt;five_4</title>
<path fill="none" stroke="black" d="M185.57,-146.834C195.75,-136.938 209.524,-123.546 221.031,-112.359"/>
<polygon fill="black" stroke="black" points="223.474,-114.865 228.204,-105.385 218.595,-109.846 223.474,-114.865"/>
</g>
<!-- five_5 -->
<g id="node18" class="node"><title>five_5</title>
<ellipse fill="none" stroke="black" cx="315" cy="-90" rx="27" ry="18"/>
<text text-anchor="middle" x="315" y="-86.3" font-family="Times,serif" font-size="14.00">17</text>
</g>
<!-- four&#45;&gt;five_5 -->
<g id="edge25" class="edge"><title>four&#45;&gt;five_5</title>
<path fill="none" stroke="black" d="M192.248,-150.671C216.602,-138.832 256.719,-119.331 284.428,-105.862"/>
<polygon fill="black" stroke="black" points="286.202,-108.891 293.665,-101.371 283.141,-102.595 286.202,-108.891"/>
</g>
<!-- six -->
<g id="node19" class="node"><title>six</title>
<ellipse fill="none" stroke="black" cx="171" cy="-18" rx="27" ry="18"/>
<text text-anchor="middle" x="171" y="-14.3" font-family="Times,serif" font-size="14.00">18</text>
</g>
<!-- five_1&#45;&gt;six -->
<g id="edge26" class="edge"><title>five_1&#45;&gt;six</title>
<path fill="none" stroke="black" d="M48.2477,-78.6713C72.6018,-66.8324 112.719,-47.3312 140.428,-33.8615"/>
<polygon fill="black" stroke="black" points="142.202,-36.8909 149.665,-29.3711 139.141,-30.5953 142.202,-36.8909"/>
</g>
<!-- five_2&#45;&gt;six -->
<g id="edge27" class="edge"><title>five_2&#45;&gt;six</title>
<path fill="none" stroke="black" d="M113.57,-74.8345C123.75,-64.9376 137.524,-51.5462 149.031,-40.3591"/>
<polygon fill="black" stroke="black" points="151.474,-42.865 156.204,-33.3847 146.595,-37.8461 151.474,-42.865"/>
</g>
<!-- five_3&#45;&gt;six -->
<g id="edge28" class="edge"><title>five_3&#45;&gt;six</title>
<path fill="none" stroke="black" d="M171,-71.6966C171,-63.9827 171,-54.7125 171,-46.1124"/>
<polygon fill="black" stroke="black" points="174.5,-46.1043 171,-36.1043 167.5,-46.1044 174.5,-46.1043"/>
</g>
<!-- five_4&#45;&gt;six -->
<g id="edge29" class="edge"><title>five_4&#45;&gt;six</title>
<path fill="none" stroke="black" d="M228.43,-74.8345C218.25,-64.9376 204.476,-51.5462 192.969,-40.3591"/>
<polygon fill="black" stroke="black" points="195.405,-37.8461 185.796,-33.3847 190.526,-42.865 195.405,-37.8461"/>
</g>
<!-- five_5&#45;&gt;six -->
<g id="edge30" class="edge"><title>five_5&#45;&gt;six</title>
<path fill="none" stroke="black" d="M293.752,-78.6713C269.398,-66.8324 229.281,-47.3312 201.572,-33.8615"/>
<polygon fill="black" stroke="black" points="202.859,-30.5953 192.335,-29.3711 199.798,-36.8909 202.859,-30.5953"/>
</g>
</g>
</svg>
